<svg width="55" height="41" viewBox="0 0 55 41" fill="none" xmlns="http://www.w3.org/2000/svg">
<g filter="url(#filter0_d)">
<path d="M22.6667 13.9994H15.9023L15.9047 13.9784C16.2093 12.4865 16.8056 11.0695 17.6593 9.80873C18.9297 7.93697 20.7117 6.47011 22.7927 5.58306C23.4973 5.2844 24.2323 5.05573 24.9813 4.90406C26.5351 4.58905 28.1363 4.58905 29.69 4.90406C31.9229 5.36162 33.9719 6.46603 35.5817 8.07973L38.8857 4.78506C37.3966 3.29555 35.6348 2.10649 33.6963 1.28273C32.7077 0.8642 31.6799 0.545289 30.628 0.330731C28.4576 -0.110244 26.2207 -0.110244 24.0503 0.330731C22.9977 0.546178 21.969 0.865864 20.9797 1.28506C18.0642 2.52197 15.5685 4.57527 13.793 7.19773C12.5981 8.96605 11.7624 10.952 11.3337 13.0427C11.2683 13.3577 11.2333 13.6797 11.1867 13.9994H4L13.3333 23.3327L22.6667 13.9994ZM32 18.6661H38.7643L38.762 18.6847C38.1523 21.6755 36.3895 24.3059 33.855 26.0067C32.5946 26.8611 31.1774 27.4575 29.6853 27.7614C28.1324 28.0764 26.532 28.0764 24.979 27.7614C23.4871 27.4567 22.0702 26.8604 20.8093 26.0067C20.1901 25.5879 19.612 25.1113 19.0827 24.5834L15.7833 27.8827C17.2732 29.3718 19.0358 30.5601 20.975 31.3827C21.9643 31.8027 22.998 32.1224 24.0433 32.3347C26.2129 32.776 28.4491 32.776 30.6187 32.3347C34.8013 31.4666 38.4803 29.0014 40.8737 25.4631C42.0674 23.6961 42.9023 21.7117 43.3307 19.6227C43.3937 19.3077 43.431 18.9857 43.4777 18.6661H50.6667L41.3333 9.33273L32 18.6661Z" fill="white"/>
</g>
<defs>
<filter id="filter0_d" x="0" y="0" width="54.6667" height="40.6656" filterUnits="userSpaceOnUse" color-interpolation-filters="sRGB">
<feFlood flood-opacity="0" result="BackgroundImageFix"/>
<feColorMatrix in="SourceAlpha" type="matrix" values="0 0 0 0 0 0 0 0 0 0 0 0 0 0 0 0 0 0 127 0"/>
<feOffset dy="4"/>
<feGaussianBlur stdDeviation="2"/>
<feColorMatrix type="matrix" values="0 0 0 0 0 0 0 0 0 0 0 0 0 0 0 0 0 0 0.25 0"/>
<feBlend mode="normal" in2="BackgroundImageFix" result="effect1_dropShadow"/>
<feBlend mode="normal" in="SourceGraphic" in2="effect1_dropShadow" result="shape"/>
</filter>
</defs>
</svg>
